<svg width="1075" height="1071" viewBox="0 0 1075 1071" fill="none" xmlns="http://www.w3.org/2000/svg">
<rect width="1075" height="1071" rx="535.5" fill="#27272A"/>
<path d="M475.656 407C483.219 362.256 506.386 321.637 541.046 292.348C575.707 263.059 619.621 246.993 665 247C640.084 272.573 626.244 306.931 626.476 342.634C626.709 378.337 640.995 412.512 666.241 437.759C691.488 463.005 725.663 477.291 761.366 477.524C797.069 477.756 831.427 463.916 857 439C857 510.04 818.408 572.12 761 605.304M249 759C234.617 739.804 224.734 717.62 220.083 694.09C215.431 670.559 216.129 646.283 222.126 623.059C228.123 599.834 239.264 578.255 254.727 559.918C270.189 541.581 289.577 526.955 311.455 517.122C333.333 507.289 357.142 502.501 381.12 503.112C405.099 503.723 428.633 509.717 449.982 520.651C471.331 531.586 489.948 547.18 504.457 566.281C518.965 585.382 528.994 607.5 533.8 631H569C588.471 630.971 607.49 636.864 623.533 647.896C639.577 658.927 651.887 674.577 658.83 692.767C665.773 710.958 667.021 730.83 662.408 749.746C657.794 768.662 647.538 785.728 633 798.68M505 759V823M377 727V791" stroke="white" stroke-width="64" stroke-linecap="round" stroke-linejoin="round"/>
</svg>
